<svg id="Capa_1" enable-background="new 0 0 512 512" height="512" viewBox="0 0 512 512" width="512" xmlns="http://www.w3.org/2000/svg"><g><g><path d="m132.048 322.64c-2.16 0-4.306-.919-5.804-2.702l-17.831-21.209c-2.693-3.203-2.28-7.983.924-10.676 3.203-2.695 7.983-2.28 10.677.924l17.831 21.209c2.693 3.203 2.28 7.983-.924 10.676-1.421 1.194-3.152 1.778-4.873 1.778z" fill="#524798"/></g><g><path d="m84.208 292.716v25.705c0 11.148 7.068 21.07 17.604 24.712l3.377 1.167c6.631 2.292 13.545-2.633 13.545-9.65v-23.837l-9.91-21.231z" fill="#5e54ac"/></g><g><path d="m103.39 290.974v43.675c0 3.15-1.4 5.871-3.537 7.715.639.28 1.292.537 1.959.768l3.377 1.167c6.631 2.292 13.545-2.633 13.545-9.65v-45.068z" fill="#524798"/></g><g><path d="m175.71 122.212v72.748h-4.961c-9.334 0-17.457 6.383-19.665 15.453l-18.818 77.317c-1.686 6.929-7.893 11.806-15.024 11.806h-33.033v-60.539c0-15.521 3.469-30.846 10.153-44.854l16.724-35.049c5.006-10.491 12.743-19.442 22.4-25.914 10.669-7.15 23.222-10.968 36.065-10.968z" fill="#dddaec"/></g><g><path d="m152.776 176.987c-9.334 0-17.457 6.383-19.665 15.453l-18.818 77.317c-1.686 6.929-7.892 11.806-15.024 11.806h-15.06v17.973h33.034c7.131 0 13.337-4.877 15.024-11.806l18.818-77.317c2.207-9.069 10.331-15.453 19.665-15.453h4.961v-17.973z" fill="#d0cee7"/></g><g><path d="m304.063 122.212v72.748h4.961c9.334 0 17.457 6.383 19.665 15.453l18.818 77.317c1.686 6.929 7.893 11.806 15.024 11.806h17.998c8.305 0 15.037-6.732 15.037-15.037v-45.502c0-15.521-3.469-30.846-10.153-44.854l-16.724-35.049c-5.006-10.491-12.743-19.442-22.4-25.914-10.669-7.15-23.222-10.968-36.065-10.968z" fill="#dddaec"/></g><g><path d="m385.411 194.143-16.725-35.049c-5.006-10.491-12.743-19.442-22.4-25.914-10.669-7.15-23.222-10.968-36.065-10.968h-6.158v2.271c6.757 1.835 13.21 4.757 19.089 8.697 9.657 6.472 17.394 15.423 22.4 25.914l16.725 35.049c6.684 14.008 10.153 29.333 10.153 44.854v45.502c0 7.45-5.423 13.617-12.533 14.812.858.148 1.739.225 2.633.225h17.998c8.305 0 15.037-6.732 15.037-15.037v-45.502c-.001-15.521-3.47-30.846-10.154-44.854z" fill="#d0cee7"/></g><g><path d="m173.353 94.995c-29.714 1.891-27.189-6.477-26.969-31.828.406-15.092 16.312-13.247 26.969-13.071z" fill="#dddaec"/></g><g><path d="m157.776 50.525v23.594c0 5.88-4.914 10.62-10.785 10.3l-.091-.005c1.703 8.828 7.554 11.785 26.453 10.582v-44.9c-4.763-.079-10.57-.486-15.577.429z" fill="#d0cee7"/></g><g><path d="m306.421 94.995c29.714 1.891 27.19-6.477 26.969-31.828-.406-15.092-16.312-13.247-26.969-13.071z" fill="#dddaec"/></g><g><path d="m333.389 63.167c-.213-7.91-4.686-11.164-10.427-12.448.103.698.176 1.429.197 2.217.191 21.972 2.097 31.18-16.738 32.015v10.043c29.713 1.892 27.189-6.475 26.968-31.827z" fill="#d0cee7"/></g><g><path d="m456.868 512c2.79 0 4.107-3.46 2.015-5.308-58.354-51.545-135.015-82.84-218.997-82.84s-160.642 31.295-218.996 82.84c-2.091 1.848-.775 5.308 2.015 5.308z" fill="#b1e4f9"/></g><g><path d="m458.883 506.692c-58.354-51.545-135.015-82.84-218.997-82.84-17.416 0-34.51 1.366-51.198 3.959 63.785 9.911 121.546 38.025 167.799 78.881 2.091 1.847.775 5.308-2.015 5.308h102.396c2.79 0 4.106-3.46 2.015-5.308z" fill="#90d8f9"/></g><g><path d="m297.383 122.212h-115.381c-14.753 0-26.712 11.959-26.712 26.712v323.672h65.935l10.529-146.002c.308-4.265 3.857-7.568 8.133-7.568 4.276 0 7.825 3.303 8.133 7.568l10.529 146.002h65.935l-.325-270.732c-.001 0-12.024-79.652-26.776-79.652z" fill="#f9f6f9"/></g><g><g><path d="m324.095 148.925c0-14.753-11.959-26.712-26.712-26.712h-19.195c11.217 3.168 19.44 13.471 19.44 25.702l.389 323.672h-39.541l.073 1.01h65.935z" fill="#dddaec"/></g></g><g><path d="m300.651 142.782-21.749 8.527c-25.08 9.833-52.949 9.833-78.03 0l-21.749-8.527c-5.36-2.101-8.885-7.271-8.885-13.027v-60.106c-.001-38.466 31.182-69.649 69.648-69.649 38.466 0 69.649 31.183 69.649 69.649v15.067l-6.836 5.409 6.836 5.035v34.595c.001 5.757-3.525 10.926-8.884 13.027z" fill="#dddaec"/></g><g><path d="m239.887 0c-3.215 0-6.373.237-9.472.658 33.983 4.624 60.177 33.74 60.177 68.991v60.106c0 5.757-3.526 10.926-8.885 13.028l-21.749 8.527c-9.546 3.743-19.496 6.057-29.542 6.95 16.349 1.454 32.953-.86 48.487-6.95l21.749-8.527c5.359-2.101 8.885-7.271 8.885-13.028v-60.106c-.001-38.466-31.184-69.649-69.65-69.649z" fill="#d0cee7"/></g><g><path d="m210.224 487.058h-43.934c-6.075 0-11-4.925-11-11v-10.18c0-15.611 12.655-28.266 28.266-28.266h9.404c15.611 0 28.266 12.655 28.266 28.266v10.18c-.002 6.075-4.926 11-11.002 11z" fill="#5e54ac"/></g><g><path d="m313.483 487.058h-43.935c-6.075 0-11-4.925-11-11v-10.18c0-15.611 12.655-28.266 28.266-28.266h9.404c15.611 0 28.266 12.655 28.266 28.266v10.18c-.001 6.075-4.925 11-11.001 11z" fill="#5e54ac"/></g><path d="m192.959 437.612h-9.404c-2.389 0-4.707.299-6.923.857 12.263 3.088 21.342 14.187 21.342 27.408v10.18c0 6.075-4.925 11-11 11h23.25c6.075 0 11-4.925 11-11v-10.18c0-15.61-12.654-28.265-28.265-28.265z" fill="#524798"/><path d="m296.218 437.612h-9.404c-2.389 0-4.707.299-6.923.857 12.263 3.088 21.342 14.187 21.342 27.408v10.18c0 6.075-4.925 11-11 11h23.25c6.075 0 11-4.925 11-11v-10.18c0-15.61-12.655-28.265-28.265-28.265z" fill="#524798"/><g><path d="m253.167 129.411h-26.561c-16.348 0-29.602-13.253-29.602-29.602v-26.56c0-16.348 13.253-29.602 29.602-29.602h26.561c16.348 0 29.602 13.253 29.602 29.602v26.561c0 16.348-13.253 29.601-29.602 29.601z" fill="#5e54ac"/></g><path d="m258.99 44.223c.376 1.883.576 3.829.576 5.823v26.561c0 16.349-13.253 29.602-29.602 29.602h-26.561c-1.993 0-3.94-.2-5.823-.576 2.705 13.56 14.671 23.779 29.026 23.779h26.561c16.349 0 29.602-13.253 29.602-29.602v-26.561c0-14.355-10.22-26.321-23.779-29.026z" fill="#524798"/><g><path d="m194.421 399.564h-35.153c-6.591 0-11.935-5.343-11.935-11.935v-32.396c0-6.591 5.343-11.935 11.935-11.935h35.153c6.591 0 11.935 5.343 11.935 11.935v32.396c0 6.592-5.343 11.935-11.935 11.935z" fill="#dddaec"/></g><g><path d="m320.505 399.564h-35.153c-6.591 0-11.935-5.343-11.935-11.935v-32.396c0-6.591 5.343-11.935 11.935-11.935h35.153c6.591 0 11.935 5.343 11.935 11.935v32.396c0 6.592-5.344 11.935-11.935 11.935z" fill="#dddaec"/></g><path d="m194.421 343.298h-4.471v27.925c0 6.591-5.343 11.935-11.935 11.935h-30.682v4.471c0 6.591 5.343 11.935 11.935 11.935h35.153c6.591 0 11.935-5.343 11.935-11.935v-32.396c0-6.591-5.343-11.935-11.935-11.935z" fill="#d0cee7"/><path d="m320.505 343.298h-4.471v27.925c0 6.591-5.343 11.935-11.935 11.935h-30.682v4.471c0 6.591 5.343 11.935 11.935 11.935h35.153c6.591 0 11.935-5.343 11.935-11.935v-32.396c0-6.591-5.344-11.935-11.935-11.935z" fill="#d0cee7"/><g><path d="m155.121 264.341c-2.315 0-4.601-1.057-6.088-3.058-2.496-3.36-1.796-8.107 1.563-10.602l13.269-9.86c6.028-4.481 13.485-6.947 20.997-6.947h22.455c4.185 0 7.578 3.392 7.578 7.578s-3.393 7.578-7.578 7.578h-22.455c-4.277 0-8.524 1.405-11.957 3.956l-13.269 9.86c-1.359 1.008-2.944 1.495-4.515 1.495z" fill="#d0cee7"/></g><g><path d="m155.121 307.225c-2.315 0-4.601-1.057-6.088-3.058-2.496-3.36-1.796-8.107 1.563-10.602l13.269-9.86c6.028-4.481 13.485-6.947 20.997-6.947h22.455c4.185 0 7.578 3.392 7.578 7.578s-3.393 7.578-7.578 7.578h-22.455c-4.277 0-8.524 1.405-11.957 3.956l-13.269 9.86c-1.359 1.009-2.944 1.495-4.515 1.495z" fill="#d0cee7"/></g><g><path d="m155.111 248.89c-1.704 0-3.417-.571-4.831-1.744-3.223-2.67-3.67-7.447-1-10.669l22.801-27.515c7.905-9.54 19.544-15.012 31.934-15.012h8.795c4.185 0 7.578 3.392 7.578 7.578s-3.393 7.578-7.578 7.578h-8.795c-7.862 0-15.248 3.472-20.264 9.526l-22.801 27.515c-1.499 1.809-3.661 2.743-5.839 2.743z" fill="#d0cee7"/></g><g><path d="m324.652 264.341c-1.571 0-3.156-.486-4.514-1.496l-13.269-9.86c-3.433-2.551-7.68-3.956-11.957-3.956h-22.455c-4.185 0-7.578-3.392-7.578-7.578s3.393-7.578 7.578-7.578h22.455c7.511 0 14.968 2.467 20.997 6.947l13.269 9.86c3.359 2.495 4.059 7.242 1.563 10.602-1.487 2.002-3.774 3.059-6.089 3.059z" fill="#d0cee7"/></g><g><path d="m324.652 307.225c-1.571 0-3.156-.486-4.514-1.496l-13.269-9.86c-3.433-2.551-7.68-3.956-11.957-3.956h-22.455c-4.185 0-7.578-3.392-7.578-7.578s3.393-7.578 7.578-7.578h22.455c7.511 0 14.968 2.467 20.997 6.947l13.269 9.86c3.359 2.495 4.059 7.242 1.563 10.602-1.487 2.002-3.774 3.059-6.089 3.059z" fill="#d0cee7"/></g><g><path d="m324.662 248.89c-2.178 0-4.34-.934-5.839-2.743l-22.801-27.515c-5.016-6.053-12.402-9.526-20.264-9.526h-8.795c-4.185 0-7.578-3.392-7.578-7.578s3.393-7.578 7.578-7.578h8.795c12.39 0 24.029 5.471 31.934 15.012l22.801 27.515c2.671 3.223 2.223 7.999-1 10.669-1.414 1.173-3.127 1.744-4.831 1.744z" fill="#d0cee7"/></g><g><circle cx="272.282" cy="240.152" fill="#5e54ac" r="15.345"/></g><g><circle cx="272.282" cy="284.19" fill="#95d6a4" r="15.345"/></g><g><path d="m276.636 225.443c.408 1.381.636 2.84.636 4.354 0 8.475-6.87 15.345-15.345 15.345-1.514 0-2.973-.228-4.354-.636 1.878 6.352 7.748 10.991 14.709 10.991 8.475 0 15.345-6.87 15.345-15.345 0-6.961-4.638-12.831-10.991-14.709z" fill="#524798"/></g><g><path d="m276.636 269.481c.408 1.381.636 2.84.636 4.354 0 8.475-6.87 15.345-15.345 15.345-1.514 0-2.973-.228-4.354-.636 1.878 6.352 7.748 10.991 14.709 10.991 8.475 0 15.345-6.87 15.345-15.345 0-6.961-4.638-12.831-10.991-14.709z" fill="#78c2a4"/></g><g><circle cx="207.491" cy="284.19" fill="#5e54ac" r="15.345"/></g><g><path d="m211.845 269.481c.408 1.381.636 2.84.636 4.354 0 8.475-6.87 15.345-15.345 15.345-1.514 0-2.973-.228-4.354-.636 1.878 6.352 7.748 10.991 14.709 10.991 8.475 0 15.345-6.87 15.345-15.345 0-6.961-4.638-12.831-10.991-14.709z" fill="#524798"/></g><g><circle cx="207.491" cy="240.152" fill="#e28086" r="15.345"/></g><g><path d="m211.845 225.443c.408 1.381.636 2.84.636 4.354 0 8.475-6.87 15.345-15.345 15.345-1.514 0-2.973-.228-4.354-.636 1.878 6.352 7.748 10.991 14.709 10.991 8.475 0 15.345-6.87 15.345-15.345 0-6.961-4.638-12.831-10.991-14.709z" fill="#dd636e"/></g><g><path d="m489.875 65.672-128.363-48.442v103.427l128.363-48.441c3.017-1.138 3.017-5.406 0-6.544z" fill="#e28086"/></g><path d="m489.875 65.672-32.188-12.147-96.175 36.294v30.839l128.363-48.442c3.017-1.138 3.017-5.406 0-6.544z" fill="#dd636e"/><g><path d="m255.614 218.62h-31.455c-6.66 0-12.412-3.886-15.114-9.514-.347-.723 1.787-1.627 1.546-2.403-.255-.817-3.007-2.374-3.007-2.374-.119-.804-.18-1.627-.18-2.465 0-9.254 7.502-16.755 16.755-16.755h31.628c6.362 0 11.887 3.582 14.668 8.84 1.223 2.311 1.325 12.965.273 15.157-2.701 5.628-8.454 9.514-15.114 9.514z" fill="#dddaec"/></g><path d="m270.455 193.949c-2.406-4.549-6.868-7.839-12.147-8.644.107.76.168 1.535.168 2.325v.172c0 9.254-7.502 16.755-16.755 16.755h-31.455c-.908 0-1.792-.092-2.661-.231 1.193 8.083 8.139 14.293 16.555 14.293h31.455c9.254 0 16.755-7.501 16.755-16.755v-.172c-.001-2.796-.693-5.432-1.915-7.743z" fill="#d0cee7"/><g><path d="m374.411 278.661c-2.343 0-4.653-1.083-6.136-3.123-.898-1.235-2.107-2.226-3.496-2.864l-7.976-3.667c-3.803-1.747-5.468-6.248-3.72-10.05 1.748-3.803 6.247-5.47 10.05-3.721l7.977 3.667c3.745 1.722 7.004 4.393 9.425 7.723 2.461 3.385 1.711 8.125-1.674 10.585-1.346.978-2.905 1.45-4.45 1.45z" fill="#5e54ac"/></g><g><path d="m359.807 485.326c-4.185 0-7.578-3.392-7.578-7.578v-456.754c0-4.186 3.393-7.578 7.578-7.578s7.578 3.392 7.578 7.578v456.754c0 4.186-3.393 7.578-7.578 7.578z" fill="#6b61b1"/></g><g><path d="m389.923 296.27-9.099 8.895c-7.972 7.793-20.007 9.674-29.977 4.686l-3.196-1.599c-6.275-3.14-7.586-11.527-2.569-16.432l22.735-22.225c5.098-4.984 13.374-4.515 17.876 1.013l5.313 6.523c4.644 5.7 4.174 14-1.083 19.139z" fill="#5e54ac"/></g><g><path d="m391.007 277.131-4.017-4.932c-.671 2.232-1.886 4.328-3.66 6.062l-9.099 8.895c-7.82 7.645-19.548 9.584-29.403 4.946-4.698 4.937-3.337 13.068 2.823 16.15l3.196 1.599c9.97 4.988 22.005 3.107 29.977-4.686l9.099-8.895c5.257-5.139 5.727-13.439 1.084-19.139z" fill="#524798"/></g></g></svg>